HIERARCHY
ROOT Hips
{
	OFFSET -3.958830 18.904000 13.208200
	CHANNELS 6 Xposition Yposition Zposition Zrotation Yrotation Xrotation 
	JOINT LHipJoint
	{
		OFFSET 0.000000 0.000000 0.000000
		CHANNELS 3 Zrotation Yrotation Xrotation
		JOINT LeftUpLeg
		{
			OFFSET 1.800000 -1.400000 0.085000
			CHANNELS 3 Zrotation Yrotation Xrotation
			JOINT LeftLeg
			{
				OFFSET 2.215000 -6.000000 0.000000
				CHANNELS 3 Zrotation Yrotation Xrotation
				JOINT LeftFoot
				{
					OFFSET 2.500000 -6.900000 0.000000
					CHANNELS 3 Zrotation Yrotation Xrotation
					JOINT LeftToeBase
					{
						OFFSET 0.200000 -0.500000 1.950000
						CHANNELS 3 Zrotation Yrotation Xrotation
						End Site
						{
							OFFSET 0.000000 0.000000 0.000000
						}
					}
				}
			}
		}
	}
	JOINT RHipJoint
	{
		OFFSET 0.000000 0.000000 0.000000
		CHANNELS 3 Zrotation Yrotation Xrotation
		JOINT RightUpLeg
		{
			OFFSET -1.800000 -1.400000 0.085000
			CHANNELS 3 Zrotation Yrotation Xrotation
			JOINT RightLeg
			{
				OFFSET -2.215000 -6.000000 0.000000
				CHANNELS 3 Zrotation Yrotation Xrotation
				JOINT RightFoot
				{
					OFFSET -2.500000 -6.900000 0.000000
					CHANNELS 3 Zrotation Yrotation Xrotation
					JOINT RightToeBase
					{
						OFFSET -0.200000 -0.500000 1.950000
						CHANNELS 3 Zrotation Yrotation Xrotation
						End Site
						{
							OFFSET 0.000000 0.000000 0.000000
						}
					}
				}
			}
		}
	}
	JOINT LowerBack
	{
		OFFSET 0.000000 0.000000 0.000000
		CHANNELS 3 Zrotation Yrotation Xrotation
		JOINT Spine
		{
			OFFSET -0.087000 1.940000 -0.288900
			CHANNELS 3 Zrotation Yrotation Xrotation
			JOINT Spine1
			{
				OFFSET 0.000000 1.950000 0.060000
				CHANNELS 3 Zrotation Yrotation Xrotation
				JOINT Neck
				{
					OFFSET 0.000000 0.000000 0.000000
					CHANNELS 3 Zrotation Yrotation Xrotation
					JOINT Neck1
					{
						OFFSET 0.000000 1.600000 0.340000
						CHANNELS 3 Zrotation Yrotation Xrotation
						JOINT Head
						{
							OFFSET 0.000000 1.667000 -0.240000
							CHANNELS 3 Zrotation Yrotation Xrotation
							End Site
							{
								OFFSET 0.000000 0.000000 0.000000
							}
						}
					}
				}
				JOINT LeftShoulder
				{
					OFFSET 0.000000 0.000000 0.000000
					CHANNELS 3 Zrotation Yrotation Xrotation
					JOINT LeftArm
					{
						OFFSET 2.700000 1.550000 -0.730000
						CHANNELS 3 Zrotation Yrotation Xrotation
						JOINT LeftForeArm
						{
							OFFSET 5.450000 0.000000 0.000000
							CHANNELS 3 Zrotation Yrotation Xrotation
							JOINT LeftHand
							{
								OFFSET 3.450000 0.000000 0.000000
								CHANNELS 3 Zrotation Yrotation Xrotation
								JOINT LeftHandIndex1
								{
									OFFSET 0.750000 0.000000 0.000000
									CHANNELS 3 Zrotation Yrotation Xrotation
									End Site
									{
										OFFSET 0.000000 0.000000 0.000000
									}
								}
							}
						}
					}
				}
				JOINT RightShoulder
				{
					OFFSET 0.000000 0.000000 0.000000
					CHANNELS 3 Zrotation Yrotation Xrotation
					JOINT RightArm
					{
						OFFSET -2.700000 1.550000 -0.730000
						CHANNELS 3 Zrotation Yrotation Xrotation
						JOINT RightForeArm
						{
							OFFSET -5.450000 0.000000 0.000000
							CHANNELS 3 Zrotation Yrotation Xrotation
							JOINT RightHand
							{
								OFFSET -3.450000 0.000000 0.000000
								CHANNELS 3 Zrotation Yrotation Xrotation
								JOINT RightHandIndex1
								{
									OFFSET -0.750000 0.000000 0.000000
									CHANNELS 3 Zrotation Yrotation Xrotation
									End Site
									{
										OFFSET 0.000000 0.000000 0.000000
									}
								}
							}
						}
					}
				}
			}
		}
	}
}
MOTION
Frames: 7
Frame Time: 0.016667
-0.943080 17.299750 -5.815330 -2.123220 -21.864790 -5.533897 -15.401248 14.236096 2.830790 -0.344665 -0.634356 -19.177914 2.010705 6.805559 32.218661 -0.473242 5.883674 2.655236 -0.178570 -0.618190 -0.220760 17.878803 -10.586632 2.992956 -6.282906 1.643187 -5.277360 14.764494 -7.265000 13.370238 -0.258572 -4.551338 3.031849 -0.238610 0.722940 0.183620 -2.281643 -3.504623 -7.579077 5.678023 11.792212 25.417455 20.593479 10.027765 16.841227 -6.345002 -5.919529 -13.862363 -12.519437 9.866325 36.295030 -1.363030 7.135350 -2.898670 8.026090 -5.283716 9.171827 -12.804792 9.458871 -1.631413 -27.517619 -88.149749 21.450852 -3.696336 3.981037 0.603480 0.350780 -0.358800 0.102180 6.156965 14.731586 9.871300 38.443408 9.180679 -9.440005 -162.710467 68.234848 -172.839088 1.613086 -1.735798 -0.525370 0.414470 0.500670 -0.236690 
-0.922080 17.308690 -5.815630 -1.832539 -20.439330 -5.556051 -15.426952 14.293092 2.907879 -1.217660 -0.961637 -18.471077 2.513256 6.222110 31.205538 -0.471592 5.604108 2.755638 -0.150490 -0.584360 -0.191400 17.837932 -10.541413 2.998701 -6.765364 1.567408 -5.314254 14.988048 -7.264049 13.041920 -0.288540 -4.485059 3.062215 -0.253080 0.666440 0.175810 -2.200731 -3.722171 -7.707361 5.567736 10.983014 26.350254 18.913547 10.088115 16.133748 -5.220562 -5.885431 -14.238332 -12.913964 9.168007 37.884582 -1.226540 6.502430 -3.990380 6.898720 -5.803432 9.213562 -16.300778 7.880605 -1.166312 -93.337973 -86.130568 80.202697 -4.366427 0.601263 0.645720 0.297630 -0.302480 0.108060 4.833781 15.254932 10.034808 37.733604 5.994453 -12.982442 -174.424497 74.685249 172.108651 1.554269 -1.587961 -0.497090 0.411540 0.467500 -0.237200 
-0.900580 17.309920 -5.816270 -1.506491 -18.879144 -5.338650 -15.465035 14.293962 2.959025 -2.011245 -1.265952 -17.791584 2.804147 5.740219 30.056302 -0.508616 5.361254 2.841806 -0.142960 -0.570350 -0.173910 17.803314 -10.492754 2.982648 -7.247416 1.500602 -5.583728 15.204251 -7.255787 12.655144 -0.314001 -4.418994 3.080235 -0.262670 0.628810 0.171690 -2.129497 -3.847168 -7.742614 5.051674 10.133735 26.688356 17.100378 9.737283 15.466648 -3.577870 -5.467955 -14.671653 -12.573634 8.523026 39.694807 -1.450970 6.201480 -5.099180 5.268603 -7.172980 9.757255 -19.466786 7.731192 -2.533844 -96.983458 -80.920303 76.230345 -4.212532 1.856189 0.698130 0.261220 -0.252570 0.104110 3.352556 16.282181 9.500134 37.265065 3.337572 -18.597632 139.022962 79.362718 121.768575 1.550357 -0.255353 -0.493350 0.425800 0.460560 -0.245930 
-0.883170 17.303250 -5.813100 -1.290052 -17.220783 -4.628460 -15.491569 14.246046 3.002502 -2.586728 -1.568873 -17.569989 2.926033 5.351251 28.905736 -0.505819 5.061832 2.925868 -0.066570 -0.461310 -0.114110 17.783031 -10.477386 2.972292 -7.466533 1.432547 -6.212609 15.268458 -7.121947 12.137522 -0.336481 -4.315870 3.107686 -0.232670 0.548710 0.176420 -2.101166 -3.812803 -7.732908 4.435282 9.313386 25.951677 15.684047 8.902792 15.788815 -2.185909 -4.460793 -15.416048 -10.910393 7.691404 41.566151 -1.678050 6.079960 -5.620950 3.765521 -7.810752 9.703095 -23.731240 5.362810 -2.918311 -76.895291 -76.525272 53.149900 -3.783159 3.381368 0.695660 0.224380 -0.192720 0.111390 2.184578 15.766794 10.726116 35.909777 4.523107 -9.620824 -117.724600 89.830263 -135.787461 2.174008 -1.084327 -0.430110 0.391100 0.397960 -0.243330 
-0.867140 17.292030 -5.814140 -1.371053 -15.644111 -4.182158 -15.492139 14.215063 3.022905 -2.691006 -1.713236 -17.192656 2.987094 5.065852 27.943615 -0.519895 4.844713 2.982883 0.011350 -0.351680 -0.049570 17.777366 -10.503276 2.994160 -7.336668 1.355399 -6.522454 15.216089 -7.006432 11.801422 -0.369676 -4.240042 3.116460 -0.185670 0.482430 0.186990 -2.122702 -3.710658 -7.786627 4.524089 8.219114 26.079207 13.872663 8.316430 14.613645 -0.942946 -3.351601 -14.886737 -8.766219 6.765497 43.838667 -1.912660 5.736070 -6.399640 1.475208 -9.214994 8.842759 -27.968632 3.197169 -5.219264 -57.769703 -67.478870 32.738664 -3.578173 3.523365 0.697910 0.195550 -0.130360 0.120500 1.775784 16.586674 10.036876 34.561173 3.947019 -13.164490 42.337950 79.804558 24.552891 1.727447 -1.655556 -0.381740 0.377150 0.341220 -0.240800 
-0.849130 17.275170 -5.819470 -1.717255 -14.627104 -3.746696 -15.459900 14.192620 3.021089 -2.324751 -1.721229 -16.928493 2.808426 4.971226 27.299297 -0.515060 4.679584 3.009397 0.119510 -0.213960 0.041460 17.794120 -10.580117 3.027077 -6.910694 1.424394 -7.108014 15.000778 -6.929418 12.106649 -0.414490 -4.152063 3.122622 -0.134070 0.396190 0.204910 -2.207605 -3.503280 -7.840014 5.194186 7.092117 26.377065 11.564468 7.705651 13.519935 0.435940 -2.227772 -14.445969 -6.481096 6.018973 46.498845 -1.905150 5.392220 -7.581260 -2.021939 -10.540736 7.994215 -31.375176 1.538766 -6.736881 -42.883120 -57.981281 18.555296 -3.550130 3.348273 0.702100 0.150790 -0.052820 0.132580 2.310883 17.254706 9.550472 32.673755 4.851204 -13.276672 34.679723 72.272875 17.353997 1.701678 -1.608948 -0.311270 0.353260 0.269720 -0.237690 
-0.833630 17.250290 -5.830220 -2.201884 -14.200573 -3.002915 -15.414840 14.112701 2.995718 -1.638529 -1.696048 -17.045213 2.281014 5.038833 26.778535 -0.526048 4.556027 3.015153 0.209330 -0.094160 0.115350 17.827742 -10.676597 3.088276 -6.296812 1.555326 -7.841053 14.896093 -6.772020 11.998143 -0.446294 -4.056978 3.128866 -0.082710 0.324330 0.225030 -2.323900 -3.132594 -7.880330 5.825724 6.296205 26.146092 9.321301 7.283099 12.581921 1.798968 -0.599707 -13.951439 -2.889622 4.825438 49.384846 -2.025390 5.152140 -8.241830 -5.924100 -11.893077 7.275896 -34.060917 -0.216314 -7.124652 -30.124618 -47.931431 9.095784 -3.586425 3.148219 0.700060 0.123300 0.010020 0.137980 3.325203 17.583764 8.977220 31.271241 6.667928 -12.443175 29.277860 65.827775 12.933688 1.707625 -1.539205 -0.252680 0.328240 0.215400 -0.237260 
